<mxfile host="drawio-plugin" modified="2024-04-09T08:11:02.179Z" agent="5.0 (Windows NT 10.0; Win64; x64) AppleWebKit/537.36 (KHTML, like Gecko) Chrome/111.0.0.0 Safari/537.36" etag="DixbP-6sPzs7mw0qlPwT" version="20.5.3" type="embed"><diagram name="Страница — 1" id="ie2X7X3hdG8s0NaZ0iHt"><mxGraphModel dx="743" dy="601" grid="0" gridSize="10" guides="1" tooltips="1" connect="1" arrows="1" fold="1" page="1" pageScale="1" pageWidth="827" pageHeight="1169" background="#FFFFFF" math="0" shadow="0"><root><mxCell id="0"/><mxCell id="1" parent="0"/><mxCell id="7E1CdP5ArRmrXuWF60EE-11" value="&lt;div&gt;Пользователи&lt;/div&gt;" style="swimlane;fontStyle=0;childLayout=stackLayout;horizontal=1;startSize=26;horizontalStack=0;resizeParent=1;resizeParentMax=0;resizeLast=0;collapsible=1;marginBottom=0;whiteSpace=wrap;html=1;fillColor=none;fontColor=#0A0A0A;strokeColor=#3D3D3D;" parent="1" vertex="1"><mxGeometry x="300" y="120" width="160" height="320" as="geometry"/></mxCell><mxCell id="7E1CdP5ArRmrXuWF60EE-12" value="&lt;div&gt;Guid Id&lt;/div&gt;&lt;div&gt;bool Заблокирована&lt;br&gt;&lt;/div&gt;&lt;div&gt;bool Пол&lt;/div&gt;&lt;div&gt;Date Дата Рождения&lt;/div&gt;&lt;div&gt;FK Город&lt;br&gt;text Фамилия&lt;br&gt;text Имя&lt;br&gt;?text Отчество?&lt;/div&gt;&lt;div&gt;text О себе&lt;/div&gt;&lt;div&gt;text Кого ищу&lt;br&gt;Семейное положение&lt;br&gt;bool Наличие детей&lt;br&gt;FK Теги&lt;br&gt;&lt;/div&gt;" style="text;align=left;verticalAlign=top;spacingLeft=4;spacingRight=4;overflow=hidden;rotatable=0;points=[[0,0.5],[1,0.5]];portConstraint=eastwest;whiteSpace=wrap;html=1;fillColor=none;fontColor=#0A0A0A;strokeColor=#3D3D3D;" parent="7E1CdP5ArRmrXuWF60EE-11" vertex="1"><mxGeometry y="26" width="160" height="294" as="geometry"/></mxCell><mxCell id="7E1CdP5ArRmrXuWF60EE-29" value="Города" style="swimlane;fontStyle=0;childLayout=stackLayout;horizontal=1;startSize=26;horizontalStack=0;resizeParent=1;resizeParentMax=0;resizeLast=0;collapsible=1;marginBottom=0;whiteSpace=wrap;html=1;fillColor=none;fontColor=#0A0A0A;strokeColor=#3D3D3D;" parent="1" vertex="1"><mxGeometry x="50" y="270" width="140" height="90" as="geometry"/></mxCell><mxCell id="7E1CdP5ArRmrXuWF60EE-30" value="&lt;div&gt;id&lt;/div&gt;&lt;div&gt;FK Страна&lt;br&gt;&lt;/div&gt;text Название" style="text;align=left;verticalAlign=top;spacingLeft=4;spacingRight=4;overflow=hidden;rotatable=0;points=[[0,0.5],[1,0.5]];portConstraint=eastwest;whiteSpace=wrap;html=1;fillColor=none;fontColor=#0A0A0A;strokeColor=#3D3D3D;" parent="7E1CdP5ArRmrXuWF60EE-29" vertex="1"><mxGeometry y="26" width="140" height="64" as="geometry"/></mxCell><mxCell id="7E1CdP5ArRmrXuWF60EE-34" value="" style="edgeStyle=entityRelationEdgeStyle;fontSize=12;html=1;endArrow=ERoneToMany;rounded=0;exitX=0.994;exitY=0.331;exitDx=0;exitDy=0;exitPerimeter=0;fontColor=#0A0A0A;fillColor=none;strokeColor=#3D3D3D;" parent="1" source="7E1CdP5ArRmrXuWF60EE-30" target="7E1CdP5ArRmrXuWF60EE-12" edge="1"><mxGeometry width="100" height="100" relative="1" as="geometry"><mxPoint x="430" y="180" as="sourcePoint"/><mxPoint x="300" y="200" as="targetPoint"/><Array as="points"><mxPoint x="310" y="190"/><mxPoint x="310" y="180"/><mxPoint x="300" y="160"/></Array></mxGeometry></mxCell><mxCell id="7E1CdP5ArRmrXuWF60EE-35" value="Теги пользователей" style="swimlane;fontStyle=0;childLayout=stackLayout;horizontal=1;startSize=26;horizontalStack=0;resizeParent=1;resizeParentMax=0;resizeLast=0;collapsible=1;marginBottom=0;whiteSpace=wrap;html=1;fillColor=none;fontColor=#0A0A0A;strokeColor=#3D3D3D;" parent="1" vertex="1"><mxGeometry x="60" y="410" width="140" height="90" as="geometry"/></mxCell><mxCell id="7E1CdP5ArRmrXuWF60EE-36" value="id&lt;br&gt;&lt;div&gt;FK Пользователь&lt;/div&gt;&lt;div&gt;FK Тег&lt;br&gt;&lt;/div&gt;" style="text;align=left;verticalAlign=top;spacingLeft=4;spacingRight=4;overflow=hidden;rotatable=0;points=[[0,0.5],[1,0.5]];portConstraint=eastwest;whiteSpace=wrap;html=1;fillColor=none;fontColor=#0A0A0A;strokeColor=#3D3D3D;" parent="7E1CdP5ArRmrXuWF60EE-35" vertex="1"><mxGeometry y="26" width="140" height="64" as="geometry"/></mxCell><mxCell id="7E1CdP5ArRmrXuWF60EE-37" value="" style="edgeStyle=entityRelationEdgeStyle;fontSize=12;html=1;endArrow=ERoneToMany;rounded=0;exitX=-0.016;exitY=0.789;exitDx=0;exitDy=0;exitPerimeter=0;entryX=1.007;entryY=0.257;entryDx=0;entryDy=0;entryPerimeter=0;fontColor=#0A0A0A;fillColor=none;strokeColor=#3D3D3D;" parent="1" source="7E1CdP5ArRmrXuWF60EE-12" target="7E1CdP5ArRmrXuWF60EE-36" edge="1"><mxGeometry width="100" height="100" relative="1" as="geometry"><mxPoint x="300" y="370" as="sourcePoint"/><mxPoint x="400" y="270" as="targetPoint"/></mxGeometry></mxCell><mxCell id="7E1CdP5ArRmrXuWF60EE-38" value="Теги" style="swimlane;fontStyle=0;childLayout=stackLayout;horizontal=1;startSize=26;horizontalStack=0;resizeParent=1;resizeParentMax=0;resizeLast=0;collapsible=1;marginBottom=0;whiteSpace=wrap;html=1;fillColor=none;fontColor=#0A0A0A;strokeColor=#3D3D3D;" parent="1" vertex="1"><mxGeometry x="60" y="530" width="140" height="90" as="geometry"/></mxCell><mxCell id="7E1CdP5ArRmrXuWF60EE-39" value="&lt;div&gt;id&lt;/div&gt;&lt;div&gt;text Название&lt;br&gt;&lt;/div&gt;" style="text;align=left;verticalAlign=top;spacingLeft=4;spacingRight=4;overflow=hidden;rotatable=0;points=[[0,0.5],[1,0.5]];portConstraint=eastwest;whiteSpace=wrap;html=1;fillColor=none;fontColor=#0A0A0A;strokeColor=#3D3D3D;" parent="7E1CdP5ArRmrXuWF60EE-38" vertex="1"><mxGeometry y="26" width="140" height="64" as="geometry"/></mxCell><mxCell id="7E1CdP5ArRmrXuWF60EE-40" value="" style="edgeStyle=entityRelationEdgeStyle;fontSize=12;html=1;endArrow=ERoneToMany;rounded=0;exitX=1;exitY=0.75;exitDx=0;exitDy=0;entryX=1;entryY=0.5;entryDx=0;entryDy=0;fontColor=#0A0A0A;fillColor=none;strokeColor=#3D3D3D;" parent="1" source="7E1CdP5ArRmrXuWF60EE-38" target="7E1CdP5ArRmrXuWF60EE-36" edge="1"><mxGeometry width="100" height="100" relative="1" as="geometry"><mxPoint x="240" y="610" as="sourcePoint"/><mxPoint x="340" y="510" as="targetPoint"/></mxGeometry></mxCell><mxCell id="7E1CdP5ArRmrXuWF60EE-41" value="&lt;div&gt;Персональные&lt;/div&gt;&lt;div&gt;данные&lt;br&gt;&lt;/div&gt;" style="swimlane;fontStyle=0;childLayout=stackLayout;horizontal=1;startSize=26;horizontalStack=0;resizeParent=1;resizeParentMax=0;resizeLast=0;collapsible=1;marginBottom=0;whiteSpace=wrap;html=1;fillColor=none;fontColor=#0A0A0A;strokeColor=#3D3D3D;" parent="1" vertex="1"><mxGeometry x="580" y="210" width="210" height="80" as="geometry"/></mxCell><mxCell id="7E1CdP5ArRmrXuWF60EE-42" value="text Логин&lt;br&gt;&lt;div&gt;text Пароль (в виде хэша)&lt;/div&gt;&lt;div&gt;text Номер телефона&lt;br&gt;&lt;/div&gt;" style="text;align=left;verticalAlign=top;spacingLeft=4;spacingRight=4;overflow=hidden;rotatable=0;points=[[0,0.5],[1,0.5]];portConstraint=eastwest;whiteSpace=wrap;html=1;fillColor=none;fontColor=#0A0A0A;strokeColor=#3D3D3D;" parent="7E1CdP5ArRmrXuWF60EE-41" vertex="1"><mxGeometry y="26" width="210" height="54" as="geometry"/></mxCell><mxCell id="7E1CdP5ArRmrXuWF60EE-43" value="" style="edgeStyle=entityRelationEdgeStyle;fontSize=12;html=1;endArrow=ERmandOne;startArrow=ERmandOne;rounded=0;exitX=1.006;exitY=0.196;exitDx=0;exitDy=0;exitPerimeter=0;entryX=0;entryY=0.5;entryDx=0;entryDy=0;fontColor=#0A0A0A;fillColor=none;strokeColor=#3D3D3D;" parent="1" source="7E1CdP5ArRmrXuWF60EE-12" target="7E1CdP5ArRmrXuWF60EE-42" edge="1"><mxGeometry width="100" height="100" relative="1" as="geometry"><mxPoint x="240" y="240" as="sourcePoint"/><mxPoint x="270" y="220" as="targetPoint"/></mxGeometry></mxCell><mxCell id="7E1CdP5ArRmrXuWF60EE-44" value="Страны" style="swimlane;fontStyle=0;childLayout=stackLayout;horizontal=1;startSize=26;horizontalStack=0;resizeParent=1;resizeParentMax=0;resizeLast=0;collapsible=1;marginBottom=0;whiteSpace=wrap;html=1;fillColor=none;fontColor=#0A0A0A;strokeColor=#3D3D3D;" parent="1" vertex="1"><mxGeometry x="60" y="140" width="140" height="90" as="geometry"/></mxCell><mxCell id="7E1CdP5ArRmrXuWF60EE-45" value="&lt;div&gt;id&lt;/div&gt;text Название" style="text;align=left;verticalAlign=top;spacingLeft=4;spacingRight=4;overflow=hidden;rotatable=0;points=[[0,0.5],[1,0.5]];portConstraint=eastwest;whiteSpace=wrap;html=1;fillColor=none;fontColor=#0A0A0A;strokeColor=#3D3D3D;" parent="7E1CdP5ArRmrXuWF60EE-44" vertex="1"><mxGeometry y="26" width="140" height="64" as="geometry"/></mxCell><mxCell id="7E1CdP5ArRmrXuWF60EE-46" value="" style="edgeStyle=entityRelationEdgeStyle;fontSize=12;html=1;endArrow=ERoneToMany;rounded=0;fontColor=#0A0A0A;fillColor=none;strokeColor=#3D3D3D;" parent="1" source="7E1CdP5ArRmrXuWF60EE-45" target="7E1CdP5ArRmrXuWF60EE-30" edge="1"><mxGeometry width="100" height="100" relative="1" as="geometry"><mxPoint x="450" y="140" as="sourcePoint"/><mxPoint x="550" y="40" as="targetPoint"/></mxGeometry></mxCell><mxCell id="7E1CdP5ArRmrXuWF60EE-47" value="Сообщения" style="swimlane;fontStyle=0;childLayout=stackLayout;horizontal=1;startSize=26;horizontalStack=0;resizeParent=1;resizeParentMax=0;resizeLast=0;collapsible=1;marginBottom=0;whiteSpace=wrap;html=1;fillColor=none;fontColor=#0A0A0A;strokeColor=#3D3D3D;" parent="1" vertex="1"><mxGeometry x="570" y="310" width="220" height="170" as="geometry"/></mxCell><mxCell id="7E1CdP5ArRmrXuWF60EE-48" value="&lt;div&gt;id&lt;/div&gt;&lt;div&gt;FK От пользователя&lt;/div&gt;&lt;div&gt;FK Пользователю&lt;/div&gt;&lt;div&gt;Date Дата отправления&lt;/div&gt;&lt;div&gt;bool Прочитано&lt;/div&gt;&lt;div&gt;text Текст сообщения&lt;/div&gt;&lt;div&gt;&lt;br&gt;&lt;/div&gt;&lt;div&gt;(тут не уверен, как правильно рисовать связь)&lt;br&gt;&lt;/div&gt;" style="text;align=left;verticalAlign=top;spacingLeft=4;spacingRight=4;overflow=hidden;rotatable=0;points=[[0,0.5],[1,0.5]];portConstraint=eastwest;whiteSpace=wrap;html=1;fillColor=none;fontColor=#0A0A0A;strokeColor=#3D3D3D;" parent="7E1CdP5ArRmrXuWF60EE-47" vertex="1"><mxGeometry y="26" width="220" height="144" as="geometry"/></mxCell><mxCell id="7E1CdP5ArRmrXuWF60EE-49" value="Фото" style="swimlane;fontStyle=0;childLayout=stackLayout;horizontal=1;startSize=26;horizontalStack=0;resizeParent=1;resizeParentMax=0;resizeLast=0;collapsible=1;marginBottom=0;whiteSpace=wrap;html=1;fillColor=none;fontColor=#0A0A0A;strokeColor=#3D3D3D;" parent="1" vertex="1"><mxGeometry x="260" y="520" width="260" height="140" as="geometry"/></mxCell><mxCell id="7E1CdP5ArRmrXuWF60EE-50" value="&lt;div&gt;Id&lt;/div&gt;&lt;div&gt;FK Пользователь&lt;br&gt;&lt;/div&gt;&lt;div&gt;bool Показывать&lt;br&gt;&lt;/div&gt;&lt;div&gt;id фото в хранилище&lt;br&gt;&lt;/div&gt;&lt;div&gt;&lt;br&gt;&lt;/div&gt;&lt;div&gt;(По поводу хранения фото можно подумать)&lt;br&gt;&lt;/div&gt;" style="text;align=left;verticalAlign=top;spacingLeft=4;spacingRight=4;overflow=hidden;rotatable=0;points=[[0,0.5],[1,0.5]];portConstraint=eastwest;whiteSpace=wrap;html=1;fillColor=none;fontColor=#0A0A0A;strokeColor=#3D3D3D;" parent="7E1CdP5ArRmrXuWF60EE-49" vertex="1"><mxGeometry y="26" width="260" height="114" as="geometry"/></mxCell><mxCell id="7E1CdP5ArRmrXuWF60EE-51" value="" style="edgeStyle=entityRelationEdgeStyle;fontSize=12;html=1;endArrow=ERoneToMany;rounded=0;fontColor=#0A0A0A;fillColor=none;strokeColor=#3D3D3D;" parent="1" source="7E1CdP5ArRmrXuWF60EE-50" target="7E1CdP5ArRmrXuWF60EE-12" edge="1"><mxGeometry width="100" height="100" relative="1" as="geometry"><mxPoint x="250" y="400" as="sourcePoint"/><mxPoint x="350" y="300" as="targetPoint"/></mxGeometry></mxCell><mxCell id="7E1CdP5ArRmrXuWF60EE-52" value="Жалобы" style="swimlane;fontStyle=0;childLayout=stackLayout;horizontal=1;startSize=26;horizontalStack=0;resizeParent=1;resizeParentMax=0;resizeLast=0;collapsible=1;marginBottom=0;whiteSpace=wrap;html=1;fillColor=none;fontColor=#0A0A0A;strokeColor=#3D3D3D;" parent="1" vertex="1"><mxGeometry x="510" y="700" width="260" height="160" as="geometry"/></mxCell><mxCell id="7E1CdP5ArRmrXuWF60EE-53" value="&lt;div&gt;Id&lt;/div&gt;&lt;div&gt;FK Пользователь От кого&lt;/div&gt;&lt;div&gt;FK Пользователь На кого&lt;br&gt;Datetime Отправлено&lt;br&gt;text Причина&lt;br&gt;bool Выполнено&lt;/div&gt;&lt;div&gt;&lt;br&gt;&lt;/div&gt;&lt;div&gt;(Стрелочек нет, чтобы не грузить их хитросплетениями)&lt;br&gt;&lt;/div&gt;" style="text;align=left;verticalAlign=top;spacingLeft=4;spacingRight=4;overflow=hidden;rotatable=0;points=[[0,0.5],[1,0.5]];portConstraint=eastwest;whiteSpace=wrap;html=1;fillColor=none;fontColor=#0A0A0A;strokeColor=#3D3D3D;" parent="7E1CdP5ArRmrXuWF60EE-52" vertex="1"><mxGeometry y="26" width="260" height="134" as="geometry"/></mxCell><mxCell id="JTfgjr59KeTo1BIxKSYE-1" value="Фото (отдельное хранилище)" style="swimlane;fontStyle=0;childLayout=stackLayout;horizontal=1;startSize=26;horizontalStack=0;resizeParent=1;resizeParentMax=0;resizeLast=0;collapsible=1;marginBottom=0;whiteSpace=wrap;html=1;fillColor=none;fontColor=#0A0A0A;strokeColor=#3D3D3D;" parent="1" vertex="1"><mxGeometry x="20" y="720" width="260" height="140" as="geometry"/></mxCell><mxCell id="JTfgjr59KeTo1BIxKSYE-2" value="&lt;div&gt;Guid Id&lt;/div&gt;&lt;div&gt;Guid UserId - Ид пользователя&lt;/div&gt;Binary Data - файл фото" style="text;align=left;verticalAlign=top;spacingLeft=4;spacingRight=4;overflow=hidden;rotatable=0;points=[[0,0.5],[1,0.5]];portConstraint=eastwest;whiteSpace=wrap;html=1;fillColor=none;fontColor=#0A0A0A;strokeColor=#3D3D3D;" parent="JTfgjr59KeTo1BIxKSYE-1" vertex="1"><mxGeometry y="26" width="260" height="114" as="geometry"/></mxCell></root></mxGraphModel></diagram></mxfile>